<svg xmlns="http://www.w3.org/2000/svg" width="24" height="24" viewBox="0 0 24 24" fill="none"><path d="M16.365 1.43c0 1.14-.93 2.07-2.07 2.07-.04 0-.08 0-.12-.01-.02-.09-.03-.19-.03-.29 0-1.14.93-2.07 2.07-2.07.04 0 .08 0 .12.01.02.09.03.19.03.29zM12.19 5.56c.88-.01 1.74.58 2.28.58.54 0 1.5-.75 2.63-.62.33.01 1.27.11 1.87.99-.05.03-1.11.64-1.1 1.93.02 1.55 1.36 2.06 1.38 2.07-.01.04-.21.75-.71 1.48-.44.65-.89 1.3-1.6 1.31-.7.01-.92-.42-1.72-.42-.8 0-1.05.4-1.72.43-.7.03-1.23-.69-1.67-1.34-.9-1.31-1.59-3.69-.66-5.3.46-.79 1.28-1.29 2.16-1.3zM15.365 7.56c-.13 0-.25.05-.34.14-.09.09-.14.21-.14.34 0 .13.05.25.14.34.09.09.21.14.34.14.13 0 .25-.05.34-.14.09-.09.14-.21.14-.34 0-.13-.05-.25-.14-.34-.09-.09-.21-.14-.34-.14z" fill="#111"/></svg>