<svg xmlns="http://www.w3.org/2000/svg" width="20" height="20" viewBox="0 0 20 20">
  <g fill="none" fill-rule="evenodd">
    <path d="M19.6 10.23c0-.66-.06-1.3-.17-1.92H10v3.64h5.28c-.23 1.25-.92 2.31-1.96 3.03v2.52h3.17c1.86-1.71 2.91-4.24 2.91-7.27z" fill="#4285F4"/>
    <path d="M10 20c2.7 0 4.97-.9 6.63-2.44l-3.17-2.52c-.88.6-2.02.95-3.46.95-2.66 0-4.91-1.8-5.72-4.23H1.02v2.66C2.68 17.92 6.05 20 10 20z" fill="#34A853"/>
    <path d="M4.28 11.76c-.2-.6-.32-1.24-.32-1.76s.12-1.16.32-1.76V5.58H1.02A9.98 9.98 0 000 10c0 1.6.37 3.12 1.02 4.42l3.26-2.66z" fill="#FBBC05"/>
    <path d="M10 4.02c1.47 0 2.79.5 3.83 1.48l2.87-2.87C14.95 1.13 12.7 0 10 0 6.05 0 2.68 2.08 1.02 5.58l3.26 2.66C5.09 5.82 7.34 4.02 10 4.02z" fill="#EA4335"/>
  </g>
</svg>